<svg aria-hidden="true" style="position: absolute; width: 0; height: 0; overflow: hidden;" version="1.1"
     xmlns="http://www.w3.org/2000/svg" xmlns:xlink="http://www.w3.org/1999/xlink">
    <defs>
        <symbol id="icon-heartbeat" viewBox="0 0 28 28">
            <path d="M20 16h4.766c-0.187 0.203-0.313 0.313-0.344 0.344l-9.734 9.375c-0.187 0.187-0.438 0.281-0.688 0.281s-0.5-0.094-0.688-0.281l-9.75-9.406c-0.031-0.016-0.156-0.125-0.328-0.313h5.766c0.453 0 0.859-0.313 0.969-0.75l1.094-4.391 2.969 10.422c0.125 0.422 0.516 0.719 0.969 0.719v0c0.438 0 0.828-0.297 0.953-0.719l2.281-7.578 0.875 1.75c0.172 0.328 0.516 0.547 0.891 0.547zM28 9.312c0 1.797-0.781 3.437-1.609 4.688h-5.766l-1.734-3.453c-0.172-0.359-0.578-0.578-0.969-0.547-0.422 0.047-0.766 0.313-0.875 0.719l-2.016 6.719-3.063-10.719c-0.125-0.422-0.516-0.719-0.984-0.719-0.453 0-0.844 0.313-0.953 0.75l-1.813 7.25h-6.609c-0.828-1.25-1.609-2.891-1.609-4.688 0-4.578 2.797-7.313 7.469-7.313 2.734 0 5.297 2.156 6.531 3.375 1.234-1.219 3.797-3.375 6.531-3.375 4.672 0 7.469 2.734 7.469 7.313z"></path>
        </symbol>
        <symbol id="icon-directions_bike" viewBox="0 0 24 24">
            <path d="M18.984 20.484q1.453 0 2.484-1.008t1.031-2.461-1.031-2.484-2.484-1.031-2.461 1.031-1.008 2.484 1.008 2.461 2.461 1.008zM18.984 12q2.109 0 3.563 1.453t1.453 3.563-1.453 3.539-3.563 1.43-3.539-1.43-1.43-3.539 1.43-3.563 3.539-1.453zM10.781 10.5l2.203 2.297v6.188h-1.969v-4.969l-3.234-2.813q-0.563-0.375-0.563-1.406 0-0.844 0.563-1.406l2.813-2.813q0.375-0.563 1.406-0.563 0.891 0 1.594 0.563l1.922 1.922q1.5 1.5 3.563 1.5v2.016q-2.953 0-5.063-2.109l-0.797-0.797zM5.016 20.484q1.453 0 2.461-1.008t1.008-2.461-1.008-2.484-2.461-1.031-2.484 1.031-1.031 2.484 1.031 2.461 2.484 1.008zM5.016 12q2.109 0 3.539 1.453t1.43 3.563-1.43 3.539-3.539 1.43-3.563-1.43-1.453-3.539 1.453-3.563 3.563-1.453zM15.516 5.484q-0.797 0-1.406-0.586t-0.609-1.383 0.609-1.406 1.406-0.609 1.383 0.609 0.586 1.406-0.586 1.383-1.383 0.586z"></path>
        </symbol>
        <symbol id="icon-weights" viewBox="0 0 32 32">
            <path d="M23 17h-13v3.494c0 0.835-0.672 1.506-1.5 1.506-0.834 0-1.5-0.674-1.5-1.506v-0.579c-0.156 0.055-0.325 0.085-0.5 0.085-0.834 0-1.5-0.672-1.5-1.502v-1.498h-2v-1h2v-1.498c0-0.831 0.672-1.502 1.5-1.502 0.176 0 0.344 0.030 0.5 0.085v0-0.578c0-0.835 0.672-1.506 1.5-1.506 0.834 0 1.5 0.674 1.5 1.506v3.494h13v-3.494c0-0.835 0.672-1.506 1.5-1.506 0.834 0 1.5 0.674 1.5 1.506v0.579c0.156-0.055 0.325-0.085 0.5-0.085 0.834 0 1.5 0.672 1.5 1.502v1.498h2v1h-2v1.498c0 0.831-0.672 1.502-1.5 1.502-0.176 0-0.344-0.030-0.5-0.085v0.578c0 0.835-0.672 1.506-1.5 1.506-0.834 0-1.5-0.674-1.5-1.506v-3.494zM26.5 14c-0.276 0-0.5 0.215-0.5 0.498v4.005c0 0.275 0.232 0.498 0.5 0.498 0.276 0 0.5-0.215 0.5-0.498v-4.005c0-0.275-0.232-0.498-0.5-0.498v0zM6.5 14c-0.276 0-0.5 0.215-0.5 0.498v4.005c0 0.275 0.232 0.498 0.5 0.498 0.276 0 0.5-0.215 0.5-0.498v-4.005c0-0.275-0.232-0.498-0.5-0.498v0zM24.5 12c-0.276 0-0.5 0.222-0.5 0.51v7.981c0 0.281 0.232 0.51 0.5 0.51 0.276 0 0.5-0.222 0.5-0.51v-7.981c0-0.281-0.232-0.51-0.5-0.51v0zM8.5 12c-0.276 0-0.5 0.222-0.5 0.51v7.981c0 0.281 0.232 0.51 0.5 0.51 0.276 0 0.5-0.222 0.5-0.51v-7.981c0-0.281-0.232-0.51-0.5-0.51v0z"></path>
        </symbol>
    </defs>
</svg>